<svg width="1252" height="1252" xmlns="http://www.w3.org/2000/svg" version="1.1">

 <g>
  <title>background</title>
  <rect fill="none" id="canvas_background" height="1254" width="1254" y="-1" x="-1"/>
 </g>
 <g>
  <title>Layer 1</title>
  <g opacity="0" id="#ffffffff">
   <path id="svg_1" d="m2,2l1250,0l0,1250l-1250,0l0,-1250m632.37,136.38c-10.63,0.94 -20.37,6.02 -29.05,11.94c-10.58,7.7 -19.37,17.7 -26.16,28.85c-22.09,35.18 -43.26,70.92 -64.28,106.74c-37.67,63.6 -75.6,127.04 -113.44,190.54c-37.41,62.67 -74.44,125.56 -111.64,188.36c-72.31,121.17 -144.35,242.5 -215.93,364.09c-7.49,12.76 -12.46,27.24 -12.98,42.1c-0.52,14.11 3.99,28.86 14.17,38.94c8.04,8.72 18.9,14.37 30.13,17.84c15.39,4.55 32.35,1.4 46.08,-6.54c11.65,-6.6 20.69,-16.87 28.14,-27.83c8.48,-12.76 16.26,-25.97 23.57,-39.43c117.89,-198.44 235.81,-396.86 353.71,-595.29c20.47,-34.2 40.46,-68.69 61.35,-102.64c4.39,-7.46 9.17,-14.71 14.51,-21.52c2.16,-2.54 4.36,-5.4 7.61,-6.57c3.82,-1.11 7.97,0.42 10.77,3.11c5.67,5.3 9.07,12.42 13.03,18.98c121.25,204.18 240.57,409.49 360.56,614.4c4.66,7.96 9.38,16.03 12.12,24.89c1.25,4 0.84,8.93 -2.46,11.85c-5,4.49 -12.01,5.54 -18.44,6.28c-8.91,0.52 -17.83,0.07 -26.74,0.22c-45,0 -90,-0.01 -135,0c-12.21,-0.08 -24.59,0.61 -36.59,-2.06c-4.15,-1.04 -8.58,-2.22 -11.77,-5.22c-3.14,-3.71 -1.61,-9.02 -0.48,-13.23c6.19,-18.51 17.72,-34.53 25.81,-52.18c7.21,-15.54 12.04,-33.41 7.55,-50.42c-3.11,-13.44 -12.4,-24.96 -24.2,-31.88c-10.46,-6.73 -22.8,-11.07 -35.35,-10.55c-15.61,1.06 -29.86,9.21 -41.21,19.6c-10.68,9.8 -17.4,22.82 -25.12,34.87c-24.11,38.3 -47.29,77.18 -69.42,116.65c-5.07,9.3 -10.91,18.2 -15.06,27.97c-4.28,9.52 -6.82,19.77 -7.76,30.16c-1.81,14.87 4.95,29.51 15.38,39.83c6.11,5.99 13.8,10.09 21.61,13.42c10.68,4.12 22.25,5.43 33.63,5.72c132.31,0.01 264.63,-0.08 396.95,-0.03c12.13,-0.02 24.06,-2.8 35.43,-6.89c21.32,-7.16 40.98,-20.9 52.71,-40.36c8.36,-13.8 11.25,-30.16 11.84,-46.08c0.84,-20.59 -4.75,-41.19 -14.93,-59.03c-23.63,-42.62 -49.12,-84.17 -73.84,-126.16c-37.53,-62.86 -74.9,-125.82 -112.18,-188.82c-53.88,-91.09 -107.92,-182.07 -161.94,-273.06c-40.57,-68.05 -81.43,-135.93 -122.02,-203.96c-8.94,-15.1 -19.53,-29.85 -34.49,-39.51c-9.93,-6.79 -22.3,-9.45 -34.18,-8.09m-6.02,470c-11.9,1.86 -22.47,8.7 -30.8,17.16c-6.18,6.64 -11.68,13.96 -16.09,21.9c-41.5,69.82 -83.42,139.39 -124.66,209.37c-30.13,50.89 -60.08,101.89 -90.3,152.73c-6.21,10.32 -12.16,20.81 -17.19,31.77c-5.72,11.27 -8.51,24.05 -7.53,36.69c0.66,12.21 5.74,24.15 14.4,32.84c17.09,18 46.41,25.3 68.88,13.33c10.63,-5.04 19.84,-12.78 27.21,-21.89c10.14,-13.6 18.16,-28.6 26.96,-43.07c68.77,-115.58 137.51,-231.17 206.27,-346.75c4.82,-7.87 9.15,-16.08 12.17,-24.81c3.93,-10.09 4.97,-21.16 3.44,-31.84c-2.25,-14.01 -10.04,-26.99 -21.26,-35.65c-14.78,-10.39 -33.67,-14.65 -51.5,-11.78z" fill="#ffffff"/>
  </g>
  <g id="#70c6beff">
   <path id="svg_2" d="m634.37,138.38c11.88,-1.36 24.25,1.3 34.18,8.09c14.96,9.66 25.55,24.41 34.49,39.51c40.59,68.03 81.45,135.91 122.02,203.96c54.02,90.99 108.06,181.97 161.94,273.06c37.28,63 74.65,125.96 112.18,188.82c24.72,41.99 50.21,83.54 73.84,126.16c10.18,17.84 15.77,38.44 14.93,59.03c-0.59,15.92 -3.48,32.28 -11.84,46.08c-11.73,19.46 -31.39,33.2 -52.71,40.36c-11.37,4.09 -23.3,6.87 -35.43,6.89c-132.32,-0.05 -264.64,0.04 -396.95,0.03c-11.38,-0.29 -22.95,-1.6 -33.63,-5.72c-7.81,-3.33 -15.5,-7.43 -21.61,-13.42c-10.43,-10.32 -17.19,-24.96 -15.38,-39.83c0.94,-10.39 3.48,-20.64 7.76,-30.16c4.15,-9.77 9.99,-18.67 15.06,-27.97c22.13,-39.47 45.31,-78.35 69.42,-116.65c7.72,-12.05 14.44,-25.07 25.12,-34.87c11.35,-10.39 25.6,-18.54 41.21,-19.6c12.55,-0.52 24.89,3.82 35.35,10.55c11.8,6.92 21.09,18.44 24.2,31.88c4.49,17.01 -0.34,34.88 -7.55,50.42c-8.09,17.65 -19.62,33.67 -25.81,52.18c-1.13,4.21 -2.66,9.52 0.48,13.23c3.19,3 7.62,4.18 11.77,5.22c12,2.67 24.38,1.98 36.59,2.06c45,-0.01 90,0 135,0c8.91,-0.15 17.83,0.3 26.74,-0.22c6.43,-0.74 13.44,-1.79 18.44,-6.28c3.3,-2.92 3.71,-7.85 2.46,-11.85c-2.74,-8.86 -7.46,-16.93 -12.12,-24.89c-119.99,-204.91 -239.31,-410.22 -360.56,-614.4c-3.96,-6.56 -7.36,-13.68 -13.03,-18.98c-2.8,-2.69 -6.95,-4.22 -10.77,-3.11c-3.25,1.17 -5.45,4.03 -7.61,6.57c-5.34,6.81 -10.12,14.06 -14.51,21.52c-20.89,33.95 -40.88,68.44 -61.35,102.64c-117.9,198.43 -235.82,396.85 -353.71,595.29c-7.31,13.46 -15.09,26.67 -23.57,39.43c-7.45,10.96 -16.49,21.23 -28.14,27.83c-13.73,7.94 -30.69,11.09 -46.08,6.54c-11.23,-3.47 -22.09,-9.12 -30.13,-17.84c-10.18,-10.08 -14.69,-24.83 -14.17,-38.94c0.52,-14.86 5.49,-29.34 12.98,-42.1c71.58,-121.59 143.62,-242.92 215.93,-364.09c37.2,-62.8 74.23,-125.69 111.64,-188.36c37.84,-63.5 75.77,-126.94 113.44,-190.54c21.02,-35.82 42.19,-71.56 64.28,-106.74c6.79,-11.15 15.58,-21.15 26.16,-28.85c8.68,-5.92 18.42,-11 29.05,-11.94z" fill="#70c6be"/>
  </g>
  <g id="#1ba0d8ff">
   <path id="svg_3" d="m628.35,608.38c17.83,-2.87 36.72,1.39 51.5,11.78c11.22,8.66 19.01,21.64 21.26,35.65c1.53,10.68 0.49,21.75 -3.44,31.84c-3.02,8.73 -7.35,16.94 -12.17,24.81c-68.76,115.58 -137.5,231.17 -206.27,346.75c-8.8,14.47 -16.82,29.47 -26.96,43.07c-7.37,9.11 -16.58,16.85 -27.21,21.89c-22.47,11.97 -51.79,4.67 -68.88,-13.33c-8.66,-8.69 -13.74,-20.63 -14.4,-32.84c-0.98,-12.64 1.81,-25.42 7.53,-36.69c5.03,-10.96 10.98,-21.45 17.19,-31.77c30.22,-50.84 60.17,-101.84 90.3,-152.73c41.24,-69.98 83.16,-139.55 124.66,-209.37c4.41,-7.94 9.91,-15.26 16.09,-21.9c8.33,-8.46 18.9,-15.3 30.8,-17.16z" fill="#1ba0d8"/>
  </g>
 </g>
</svg>